<svg xmlns="http://www.w3.org/2000/svg" xmlns:xlink="http://www.w3.org/1999/xlink" width="2000" zoomAndPan="magnify" viewBox="0 0 1500 1499.999933" height="2000" preserveAspectRatio="xMidYMid meet" version="1.0"><defs><clipPath id="71b971d759"><path d="M 702 516 L 1049.339844 516 L 1049.339844 791 L 702 791 Z M 702 516 " clip-rule="nonzero"/></clipPath><clipPath id="65a3f9b1eb"><path d="M 568 450.839844 L 904 450.839844 L 904 758 L 568 758 Z M 568 450.839844 " clip-rule="nonzero"/></clipPath><clipPath id="64bed73c43"><path d="M 477 815 L 869 815 L 869 1049.339844 L 477 1049.339844 Z M 477 815 " clip-rule="nonzero"/></clipPath><clipPath id="02f02c8973"><path d="M 450.839844 526 L 721 526 L 721 892 L 450.839844 892 Z M 450.839844 526 " clip-rule="nonzero"/></clipPath></defs><g clip-path="url(#71b971d759)"><path fill="#eab308" d="M 937.554688 517.003906 C 925.390625 516.914062 913.199219 517.453125 900.933594 518.761719 C 856.007812 523.683594 813.679688 537.78125 775.136719 560.65625 C 747.800781 576.734375 723.507812 596.953125 702.332031 620.5 C 717.261719 614.863281 733.378906 611.636719 750.269531 611.636719 C 750.308594 611.636719 750.359375 611.636719 750.394531 611.636719 L 750.394531 611.5625 C 779.1875 611.847656 807.796875 615.785156 835.453125 623.265625 C 875.839844 634.011719 913.347656 651.910156 946.867188 676.464844 C 985.980469 704.796875 1018.066406 740.722656 1042.183594 783.203125 C 1043.617188 785.746094 1044.925781 788.324219 1046.285156 790.894531 C 1048.128906 777.507812 1049.152344 763.871094 1049.152344 749.996094 C 1049.152344 655.8125 1005.585938 571.835938 937.554688 517.003906 Z M 937.554688 517.003906 " fill-opacity="1" fill-rule="nonzero"/></g><g clip-path="url(#65a3f9b1eb)"><path fill="#eab308" d="M 573.804688 537.980469 C 565.640625 582.429688 567 627.03125 577.855469 670.507812 C 585.421875 701.296875 597.824219 730.351562 614.316406 757.386719 C 614.105469 754.285156 613.84375 751.207031 613.84375 748.050781 C 613.84375 728.804688 617.894531 710.496094 625.125 693.878906 L 625.011719 693.828125 C 636.617188 667.628906 651.5625 642.921875 669.460938 620.386719 C 695.335938 587.578125 726.636719 560.242188 762.449219 539.179688 C 804.03125 514.496094 849.738281 499.277344 898.242188 493.96875 C 900.160156 493.757812 902.066406 493.667969 903.972656 493.496094 C 859 466.433594 806.324219 450.839844 749.996094 450.839844 C 688.058594 450.839844 630.519531 469.660156 582.792969 501.894531 C 579.140625 513.6875 576.097656 525.679688 573.804688 537.980469 Z M 573.804688 537.980469 " fill-opacity="1" fill-rule="nonzero"/></g><path fill="#eab308" d="M 1020.507812 795.480469 C 998.171875 756.152344 968.441406 722.886719 932.195312 696.609375 C 906.59375 677.863281 878.410156 663.578125 848.355469 653.46875 C 863.300781 668.960938 874.621094 687.933594 880.953125 709.0625 L 881.0625 709.035156 C 889.042969 736.644531 893.464844 765.203125 894.238281 793.882812 C 895.523438 835.691406 889.128906 876.75 875.242188 915.878906 C 859.289062 961.488281 834.070312 1002.535156 800.316406 1037.808594 C 797.550781 1040.675781 794.707031 1043.429688 791.867188 1046.183594 C 910.070312 1029.621094 1006.074219 944 1037.847656 831.390625 C 1032.824219 819.164062 1027.101562 807.183594 1020.507812 795.480469 Z M 1020.507812 795.480469 " fill-opacity="1" fill-rule="nonzero"/><g clip-path="url(#64bed73c43)"><path fill="#eab308" d="M 750.371094 1049.140625 C 761.527344 1040.289062 772.308594 1030.953125 782.316406 1020.546875 C 813.566406 987.886719 836.925781 949.871094 851.710938 907.589844 C 862.316406 877.75 867.914062 846.6875 868.996094 815.023438 C 858.277344 833.960938 843.183594 850.089844 825.070312 862.03125 L 825.160156 862.167969 C 801.003906 877.722656 774.9375 890.152344 747.652344 899.113281 C 713.347656 910.542969 677.910156 916.316406 642.125 916.316406 C 636.542969 916.316406 630.945312 916.175781 625.335938 915.890625 C 577.070312 913.683594 530.527344 901.292969 487.023438 879.082031 C 483.757812 877.398438 480.78125 875.40625 477.578125 873.636719 C 524.65625 977.144531 628.875 1049.152344 749.996094 1049.152344 C 750.121094 1049.152344 750.246094 1049.140625 750.371094 1049.140625 Z M 750.371094 1049.140625 " fill-opacity="1" fill-rule="nonzero"/></g><g clip-path="url(#02f02c8973)"><path fill="#eab308" d="M 472.367188 841.863281 L 476.355469 842.882812 L 476.007812 843.96875 C 483.3125 848.492188 490.691406 852.917969 498.429688 856.90625 C 538.691406 877.460938 581.808594 888.941406 626.542969 890.984375 C 658.144531 892.582031 689.527344 889.054688 720.128906 881.015625 C 698.566406 876.128906 678.910156 866.167969 662.554688 852.382812 L 662.429688 852.519531 C 640.640625 833.871094 621.246094 812.457031 604.816406 788.863281 C 580.796875 754.671875 563.585938 716.851562 553.675781 676.503906 C 541.957031 629.597656 540.472656 581.457031 549.289062 533.445312 C 549.6875 531.277344 550.195312 529.144531 550.644531 526.988281 C 489.417969 581.769531 450.839844 661.371094 450.839844 749.996094 C 450.839844 779.835938 455.265625 808.644531 463.40625 835.839844 C 466.371094 837.859375 469.3125 839.917969 472.367188 841.863281 Z M 472.367188 841.863281 " fill-opacity="1" fill-rule="nonzero"/></g></svg>